<?xml version="1.0" encoding="utf-8"?>
<!-- Generator: Adobe Illustrator 15.0.0, SVG Export Plug-In . SVG Version: 6.00 Build 0)  -->
<!DOCTYPE svg PUBLIC "-//W3C//DTD SVG 1.1//EN" "http://www.w3.org/Graphics/SVG/1.1/DTD/svg11.dtd">
<svg version="1.1" id="Layer_1" xmlns="http://www.w3.org/2000/svg" xmlns:xlink="http://www.w3.org/1999/xlink" x="0px" y="0px"
	 width="300px" height="300px" viewBox="0 0 300 300" enable-background="new 0 0 300 300" xml:space="preserve">
<g>
	
		<path fill="#BFBFBF" stroke="#000000" stroke-width="10" stroke-linecap="round" stroke-linejoin="round" stroke-miterlimit="10" d="
		M172.318,149.814"/>
	<circle fill="#BFBFBF" cx="102.183" cy="131.864" r="10.178"/>
	<circle fill="#BFBFBF" cx="156.959" cy="131.864" r="10.178"/>
	<ellipse fill="#BFBFBF" cx="94.102" cy="166.49" rx="21.343" ry="11.822"/>
	<rect x="99" y="171" fill="#BFBFBF" width="7" height="20"/>
	<rect x="99" y="187" fill="#BFBFBF" width="34" height="6"/>
	<path fill="#BFBFBF" d="M149.001,278.611c-68.297,0-123.86-55.563-123.86-123.861c0-68.296,55.563-123.859,123.86-123.859
		c68.296,0,123.86,55.563,123.86,123.859C272.861,223.048,217.298,278.611,149.001,278.611z M149.001,45.695
		c-60.134,0-109.056,48.922-109.056,109.055c0,60.134,48.922,109.057,109.056,109.057c60.133,0,109.055-48.923,109.055-109.057
		C258.057,94.617,209.135,45.695,149.001,45.695z"/>
	
		<rect x="50.376" y="237.115" transform="matrix(0.7071 0.7071 -0.7071 0.7071 200.7999 35.3064)" fill="#BFBFBF" width="14.804" height="45.881"/>
	
		<rect x="217.283" y="252.655" transform="matrix(0.7071 0.7071 -0.7071 0.7071 254.2633 -93.6945)" fill="#BFBFBF" width="45.881" height="14.802"/>
	<path fill="#BFBFBF" d="M24.313,97.534c-6.286,0-11.649-2.04-15.509-5.899c-6.011-6.011-7.5-15.295-4.193-26.143
		c2.82-9.247,8.956-18.923,17.278-27.246c11.888-11.887,26.048-18.984,37.879-18.984c6.286,0,11.649,2.04,15.509,5.899
		c6.01,6.01,7.5,15.295,4.192,26.142c-2.82,9.247-8.956,18.923-17.278,27.246C50.304,90.437,36.144,97.534,24.313,97.534z
		 M59.768,34.066c-7.752,0-18.512,5.75-27.41,14.649c-6.541,6.541-11.492,14.229-13.585,21.094c-1.588,5.21-1.402,9.456,0.5,11.357
		c1.038,1.038,2.733,1.563,5.041,1.563c7.753,0,18.512-5.75,27.41-14.649c6.541-6.54,11.492-14.229,13.586-21.094
		c1.588-5.21,1.401-9.456-0.5-11.357C63.771,34.592,62.076,34.066,59.768,34.066z"/>
	<path fill="#BFBFBF" d="M273.66,99.014L273.66,99.014c-11.831,0-25.991-7.097-37.878-18.984
		c-8.323-8.323-14.458-17.999-17.277-27.245c-3.309-10.848-1.819-20.133,4.192-26.143c3.858-3.859,9.221-5.899,15.508-5.899
		c11.831,0,25.992,7.097,37.879,18.984c18.947,18.948,24.572,41.899,13.086,53.387C285.311,96.974,279.946,99.014,273.66,99.014z
		 M238.205,35.547c-2.307,0-4.003,0.525-5.039,1.563c-1.903,1.902-2.09,6.148-0.502,11.357c2.094,6.865,7.045,14.553,13.586,21.094
		c8.899,8.898,19.658,14.649,27.41,14.649l0,0c2.308,0,4.004-0.526,5.042-1.563c3.946-3.948,0.813-18.552-13.086-32.451
		C256.717,41.296,245.957,35.547,238.205,35.547z"/>
</g>
</svg>
